# xmcd CD database file
#
# Track frame offsets:
#	150
#	20532
#	65317
#	88586
#	130400
#
# Disc length: 2419 seconds
#
# Revision: 0
# Processed by: cddbd v1.5.2PL0 Copyright (c) Steve Scherf et al.
# Submitted via: CDex 1.51
#
DISCID=3b097105
DTITLE=John Coltrane - John Coltrane
DYEAR=2004
DGENRE=Jazz
TTITLE0=Harden
TTITLE1=Tanganyika Strut
TTITLE2=Adedac
TTITLE3=Once In Awhile
TTITLE4=Man Made Miles (Live)
EXTD=YEAR: 2004
EXTT0=
EXTT1=
EXTT2=
EXTT3=
EXTT4=
PLAYORDER=
